<?xml version="1.0" encoding="UTF-8"?><svg xmlns="http://www.w3.org/2000/svg" xmlns:xlink="http://www.w3.org/1999/xlink" viewBox="0 0 928.9 1092.7"><defs><style>.cls-1{fill:#2a59be;}.cls-1,.cls-2,.cls-3,.cls-4,.cls-5,.cls-6,.cls-7,.cls-8,.cls-9,.cls-10,.cls-11,.cls-12,.cls-13,.cls-14,.cls-15,.cls-16,.cls-17,.cls-18,.cls-19,.cls-20,.cls-21,.cls-22,.cls-23,.cls-24,.cls-25,.cls-26,.cls-27,.cls-28,.cls-29,.cls-30,.cls-31,.cls-32,.cls-33{stroke-width:0px;}.cls-2{fill:url(#linear-gradient-12);}.cls-3{fill:url(#linear-gradient-17);}.cls-4{fill:url(#linear-gradient-19);}.cls-5{fill:url(#linear-gradient);}.cls-6{fill:url(#linear-gradient-21);}.cls-7{fill:url(#linear-gradient-6);}.cls-34{clip-path:url(#clippath-2);}.cls-8{fill:url(#linear-gradient-15);}.cls-9{fill:url(#linear-gradient-11);}.cls-10{fill:url(#linear-gradient-5);}.cls-11{fill:none;}.cls-35{clip-path:url(#clippath-1);}.cls-12{fill:url(#linear-gradient-13);}.cls-13{fill:url(#linear-gradient-23);}.cls-14,.cls-32{fill:#151c2b;}.cls-15{fill:url(#linear-gradient-25);}.cls-16{fill:url(#linear-gradient-16);}.cls-17{fill:url(#linear-gradient-22);}.cls-18{fill:url(#linear-gradient-20);}.cls-19{fill:url(#linear-gradient-14);}.cls-20{fill:url(#linear-gradient-2);}.cls-21{fill:url(#linear-gradient-7);}.cls-22{fill:url(#linear-gradient-3);}.cls-36{clip-path:url(#clippath);}.cls-23{fill:url(#linear-gradient-9);}.cls-24{fill:url(#linear-gradient-27);}.cls-37{clip-path:url(#clippath-3);}.cls-25{fill:url(#linear-gradient-8);}.cls-26{fill:url(#linear-gradient-24);}.cls-27{fill:url(#linear-gradient-26);}.cls-28{fill:url(#linear-gradient-18);}.cls-29{fill:#fff;}.cls-30{fill:#d4d8df;}.cls-31{fill:url(#linear-gradient-10);}.cls-32{opacity:.48;}.cls-33{fill:url(#linear-gradient-4);}</style><linearGradient id="linear-gradient" x1="470.77" y1="1029.8" x2="470.77" y2="148.77" gradientUnits="userSpaceOnUse"><stop offset="0" stop-color="#fff"/><stop offset="1" stop-color="#719cf9"/></linearGradient><linearGradient id="linear-gradient-2" x1="1207.57" y1="729.42" x2="1207.57" y2="570.75" gradientTransform="translate(-552.94 -131.01) rotate(18.39)" gradientUnits="userSpaceOnUse"><stop offset="0" stop-color="#ad2cdd"/><stop offset=".19" stop-color="#a92cd9"/><stop offset=".36" stop-color="#9e2dce"/><stop offset=".52" stop-color="#8c2ebc"/><stop offset=".67" stop-color="#7230a3"/><stop offset=".83" stop-color="#523283"/><stop offset=".97" stop-color="#2a355c"/><stop offset="1" stop-color="#223654"/></linearGradient><linearGradient id="linear-gradient-3" x1="1104.6" y1="489.33" x2="1104.6" y2="912.89" gradientTransform="translate(-726.58)" gradientUnits="userSpaceOnUse"><stop offset=".61" stop-color="#ad2cdd"/><stop offset=".64" stop-color="#9d2dce"/><stop offset=".74" stop-color="#683099"/><stop offset=".83" stop-color="#423373"/><stop offset=".9" stop-color="#2a355c"/><stop offset=".94" stop-color="#223654"/></linearGradient><linearGradient id="linear-gradient-4" x1="732.13" y1="934.78" x2="692.37" y2="851.89" gradientUnits="userSpaceOnUse"><stop offset="0" stop-color="#000" stop-opacity="0"/><stop offset="1" stop-color="#000"/></linearGradient><linearGradient id="linear-gradient-5" x1="287.55" y1="996.06" x2="341.17" y2="885.64" xlink:href="#linear-gradient-4"/><linearGradient id="linear-gradient-6" x1="1432" y1="78.05" x2="1135.4" y2="495.7" gradientTransform="translate(-726.58)" gradientUnits="userSpaceOnUse"><stop offset=".15" stop-color="#ad2cdd"/><stop offset=".31" stop-color="#a92cd9"/><stop offset=".46" stop-color="#9e2dce"/><stop offset=".59" stop-color="#8c2ebc"/><stop offset=".72" stop-color="#7230a3"/><stop offset=".85" stop-color="#523283"/><stop offset=".98" stop-color="#2a355c"/><stop offset="1" stop-color="#223654"/></linearGradient><linearGradient id="linear-gradient-7" x1="1053.36" y1="164.23" x2="1195.69" y2="344.88" xlink:href="#linear-gradient-6"/><linearGradient id="linear-gradient-8" x1="1604.03" y1="498.96" x2="554.85" y2="654.32" gradientTransform="translate(-726.58)" gradientUnits="userSpaceOnUse"><stop offset=".15" stop-color="#ad2cdd"/><stop offset=".26" stop-color="#a82cd8"/><stop offset=".37" stop-color="#9a2dca"/><stop offset=".5" stop-color="#842eb4"/><stop offset=".63" stop-color="#643195"/><stop offset=".76" stop-color="#3b346d"/><stop offset=".83" stop-color="#223654"/></linearGradient><linearGradient id="linear-gradient-9" x1="1083.34" y1="621.64" x2="1420.28" y2="616.04" gradientTransform="translate(-726.58)" gradientUnits="userSpaceOnUse"><stop offset=".28" stop-color="#151c2b" stop-opacity="0"/><stop offset=".45" stop-color="rgba(21,29,44,.04)" stop-opacity=".04"/><stop offset=".61" stop-color="rgba(23,32,49,.17)" stop-opacity=".17"/><stop offset=".75" stop-color="rgba(26,38,58,.39)" stop-opacity=".39"/><stop offset=".89" stop-color="rgba(29,45,71,.69)" stop-opacity=".69"/><stop offset="1" stop-color="#223654"/></linearGradient><linearGradient id="linear-gradient-10" x1="1455.23" y1="603.47" x2="1255.39" y2="632.61" gradientTransform="translate(-726.58)" gradientUnits="userSpaceOnUse"><stop offset=".34" stop-color="#ad2cdd"/><stop offset=".47" stop-color="#b239e1"/><stop offset=".7" stop-color="#c15ded"/><stop offset="1" stop-color="#d896ff"/></linearGradient><linearGradient id="linear-gradient-11" x1="1385.89" y1="415.47" x2="1385.89" y2="612.03" xlink:href="#linear-gradient-9"/><linearGradient id="linear-gradient-12" x1="1243.49" y1="354.94" x2="1266.94" y2="491.9" xlink:href="#linear-gradient-9"/><linearGradient id="linear-gradient-13" x1="-963.16" y1="354.94" x2="-939.71" y2="491.9" gradientTransform="translate(-364.39) rotate(-180) scale(1 -1)" xlink:href="#linear-gradient-9"/><linearGradient id="linear-gradient-14" x1="1176.03" y1="394.72" x2="1176.03" y2="630.25" gradientTransform="translate(-726.58)" gradientUnits="userSpaceOnUse"><stop offset=".28" stop-color="#151c2b" stop-opacity="0"/><stop offset=".42" stop-color="rgba(21,29,44,.04)" stop-opacity=".04"/><stop offset=".54" stop-color="rgba(23,32,49,.17)" stop-opacity=".17"/><stop offset=".66" stop-color="rgba(26,38,58,.39)" stop-opacity=".39"/><stop offset=".77" stop-color="rgba(29,45,71,.69)" stop-opacity=".69"/><stop offset=".86" stop-color="#223654"/></linearGradient><clipPath id="clippath"><path class="cls-11" d="M501.28,807.13s-183.1-20.86-252.63-162.24c0,0-15.06,17.38-11.59,30.13,0,0-18.42-59.1-.52-86.91,0,0-27.29,22.02-29.61,33.61,0,0,8.11-73.01,39.4-99.66,0,0-30.13,3.48-39.4,11.59,0,0,22.02-36.21,69.53-43.6,0,0,48.67-178.37,174.99-189.06,126.31-10.69,250.31,86.65,280.44,197.9,0,0,42.88-18.54,82.28,34.77,0,0-37.08-19.7-62.58-13.91,0,0,64.9,24.34,62.58,77.64,0,0-13.91-22.02-33.61-25.49,0,0,33.61,42.88,19.7,77.64,0,0-10.43-22.02-22.02-24.34,0,0-35.92,198.16-276.96,181.94Z"/></clipPath><linearGradient id="linear-gradient-15" x1="1071.1" y1="97.56" x2="1071.1" y2="920.63" gradientTransform="translate(-726.58)" gradientUnits="userSpaceOnUse"><stop offset="0" stop-color="#ad2cdd"/><stop offset=".13" stop-color="#9f2ccf"/><stop offset=".38" stop-color="#7b2fab"/><stop offset=".72" stop-color="#403372"/><stop offset=".89" stop-color="#223654"/></linearGradient><clipPath id="clippath-1"><path class="cls-11" d="M527.78,492.34c0,2.17-4.88,56.42-59.67,55.88-54.79-.54-61.3-53.16-59.67-66.73,1.63-13.56,11.93-50.45,27.67-52.08,15.73-1.63,91.68,62.93,91.68,62.93Z"/></clipPath><clipPath id="clippath-2"><path class="cls-11" d="M501.28,807.13s-183.1-20.86-252.63-162.24c0,0-15.06,17.38-11.59,30.13,0,0-18.42-59.1-.52-86.91,0,0-27.29,22.02-29.61,33.61,0,0,8.11-73.01,39.4-99.66,0,0-30.13,3.48-39.4,11.59,0,0,22.02-36.21,69.53-43.6,0,0,48.67-178.37,174.99-189.06,126.31-10.69,250.31,86.65,280.44,197.9,0,0,42.88-18.54,82.28,34.77,0,0-37.08-19.7-62.58-13.91,0,0,64.9,24.34,62.58,77.64,0,0-13.91-22.02-33.61-25.49,0,0,33.61,42.88,19.7,77.64,0,0-10.43-22.02-22.02-24.34,0,0-35.92,198.16-276.96,181.94Z"/></clipPath><linearGradient id="linear-gradient-16" x1="1360.96" y1="500.18" x2="1607.41" y2="577.05" gradientTransform="translate(-726.58)" gradientUnits="userSpaceOnUse"><stop offset="0" stop-color="#ad2cdd"/><stop offset=".19" stop-color="#b239e1"/><stop offset=".54" stop-color="#c15ded"/><stop offset="1" stop-color="#d896ff"/></linearGradient><linearGradient id="linear-gradient-17" x1="1134.87" y1="270.94" x2="1438.54" y2="365.66" gradientTransform="translate(-726.58)" gradientUnits="userSpaceOnUse"><stop offset="0" stop-color="#ad2cdd"/><stop offset=".12" stop-color="#b239e1"/><stop offset=".34" stop-color="#c15ded"/><stop offset=".64" stop-color="#d896ff"/></linearGradient><clipPath id="clippath-3"><path class="cls-11" d="M584.74,488.8s-.06,43.59,18.99,52.91,64.33-2.17,72.47-43.4c8.14-41.23-13.88-62.08-13.88-62.08l-77.58,52.57Z"/></clipPath><linearGradient id="linear-gradient-18" x1="1537.35" y1="286.56" x2="1255.43" y2="554.75" gradientTransform="translate(-726.58)" gradientUnits="userSpaceOnUse"><stop offset=".18" stop-color="#ad2cdd"/><stop offset=".25" stop-color="#9f2ccf"/><stop offset=".39" stop-color="#7b2fab"/><stop offset=".58" stop-color="#403372"/><stop offset=".67" stop-color="#223654"/></linearGradient><linearGradient id="linear-gradient-19" x1="995.32" y1="358.01" x2="1223.28" y2="471.99" gradientTransform="translate(-726.58)" gradientUnits="userSpaceOnUse"><stop offset=".01" stop-color="#ad2cdd"/><stop offset=".11" stop-color="#9f2ccf"/><stop offset=".3" stop-color="#7b2fab"/><stop offset=".55" stop-color="#403372"/><stop offset=".67" stop-color="#223654"/></linearGradient><linearGradient id="linear-gradient-20" x1="1269.59" y1="454.61" x2="1269.59" y2="721.12" gradientTransform="translate(-726.58)" gradientUnits="userSpaceOnUse"><stop offset="0" stop-color="#be29ec"/><stop offset=".12" stop-color="#b02ade"/><stop offset=".35" stop-color="#8c2dbb"/><stop offset=".66" stop-color="#513282"/><stop offset=".89" stop-color="#223654"/></linearGradient><linearGradient id="linear-gradient-21" x1="1069.26" y1="298.56" x2="1069.26" y2="577.85" gradientTransform="translate(-726.58)" gradientUnits="userSpaceOnUse"><stop offset=".33" stop-color="#be29ec"/><stop offset=".41" stop-color="#b02ade"/><stop offset=".55" stop-color="#8c2dbb"/><stop offset=".75" stop-color="#513282"/><stop offset=".89" stop-color="#223654"/></linearGradient><linearGradient id="linear-gradient-22" x1="1459.74" y1="310" x2="1459.74" y2="589.29" xlink:href="#linear-gradient-21"/><linearGradient id="linear-gradient-23" x1="1204.26" y1="748.15" x2="1424.44" y2="695.41" xlink:href="#linear-gradient-16"/><linearGradient id="linear-gradient-24" x1="1281.02" y1="358.46" x2="1281.02" y2="427.57" xlink:href="#linear-gradient-9"/><linearGradient id="linear-gradient-25" x1="1002.6" y1="722.57" x2="925.02" y2="840.35" gradientTransform="translate(-726.58)" gradientUnits="userSpaceOnUse"><stop offset=".14" stop-color="#ad2cdd"/><stop offset=".3" stop-color="#a92cd9"/><stop offset=".45" stop-color="#9e2dce"/><stop offset=".59" stop-color="#8c2ebc"/><stop offset=".72" stop-color="#7230a3"/><stop offset=".85" stop-color="#523283"/><stop offset=".98" stop-color="#2a355c"/><stop offset="1" stop-color="#223654"/></linearGradient><linearGradient id="linear-gradient-26" x1="1434.88" y1="648.34" x2="1420.29" y2="921.34" gradientTransform="translate(-876.84 592.81) rotate(-22.48) scale(.96 1)" gradientUnits="userSpaceOnUse"><stop offset=".35" stop-color="#ad2cdd"/><stop offset=".42" stop-color="#a82cd8"/><stop offset=".5" stop-color="#9a2dca"/><stop offset=".59" stop-color="#842eb4"/><stop offset=".68" stop-color="#643195"/><stop offset=".78" stop-color="#3b346d"/><stop offset=".83" stop-color="#223654"/></linearGradient><linearGradient id="linear-gradient-27" x1="1031.69" y1="642.68" x2="1136.71" y2="1037.87" gradientTransform="translate(-609.47 -416.41) rotate(19.49) scale(1.19 1)" gradientUnits="userSpaceOnUse"><stop offset=".35" stop-color="#ad2cdd"/><stop offset=".41" stop-color="#a32cd4"/><stop offset=".51" stop-color="#8b2ebb"/><stop offset=".64" stop-color="#633194"/><stop offset=".79" stop-color="#2c355e"/><stop offset=".82" stop-color="#223654"/></linearGradient></defs><g id="Layer_1"><g id="Layer_1-2"><g id="Layer_4"><polygon class="cls-5" points="484.12 152.57 92.72 357.77 92.72 783.57 475.12 1013.57 848.82 793.17 839.82 364.77 484.12 152.57"/></g></g><path class="cls-20" d="M379.94,697.91s-33.75,58.53-17.64,122.31l46.17,15.35s37.53-71.89,77.45-79.71c39.92-7.82-105.99-57.96-105.99-57.96Z"/><path class="cls-22" d="M604.09,908.14l-10.32-38.23h0c-4.74-12.2-10.21-23.72-16.53-34.29,0,0,47.9-3.45,63.35,8.91,0,0-41.72-43.26-99.66-38.63,0,0,46.54-18.86,99.66-11.59,0,0-108.16-30.13-217.09,29.36l-36.29-.35s-115.13-70.38-188.52-71.71c0,0,33.22,17.98,31.68,26.48,0,0-44.81-16.02-77.26,9.37,0,0,44.81,1.44,50.22,8.4,0,0-63.35-9.27-78.8,44.81,0,0,14.54-28.14,29.99-16.56,0,0-19.31,12.01-39.05,28.09l84.09,55.67,278.91,96.13,125.64-95.86Z"/><g id="Layer_14_copy"><path class="cls-1" d="M707.4,853.7c1.2,2.3,2.2,3.6,2.9,4.4,5.1-2.8,10.3-9.1,12.7-12.1.7-.8,1.3-1.7,2-2.5l-17.6,10.2ZM572.9,937.2c-.8,1.3-1.7,2.7-2.5,4.1,3,1,5.6,3.3,6.9,6.5.7,1.5,1,3.1,1,4.7,3.6-5.8,7.8-11,12.9-15.8,7.4-8.7,14.3-18.5,20.9-28l-32.9,19c-2,3-4.2,6.1-6.3,9.5ZM360.5,930.1l-32.8-19c6.1,8.7,12.4,17.6,19.2,25.5,2.7,2.5,5.2,5.2,7.4,8l6.2,3.7c.1-.2.2-.4.2-.6,1.3-3.1,3.9-5.4,6.9-6.5-.8-1.4-1.6-2.8-2.5-4.1-1.5-2.4-3-4.7-4.6-7ZM227.9,858.2c.6-.7,1.3-1.7,2.2-3.3l-14.8-8.5c2.5,2.9,7.7,9.1,12.6,11.8ZM719.2,260.4l-5.5-3.2-245.9-141.9-244.1,141-5.2,3-163.9,94.6v477l148.9,85.9,62.5,36.1,77.7,44.8,37.6,21.7,31.3,18.1,30.1,17.4,25.2,14.5,26.1-15.1,31.4-18.1,31.7-18.3,38-21.9,79.4-45.8,61.5-35.5,145-83.9v-477l-161.8-93.4ZM707.4,853.7l-29.2,16.9-2.7,1.6-63.2,36.5-32.9,19-109.1,63-1.9,1.1-.4.2-107.3-61.9-32.8-19-65.9-37.9-2.7-1.6-29.2-16.8-14.8-8.5-62-35.8-31.8-18.3v-399.7l113.8-65.7,36.3-20.9,196.3-113.2,197.9,114.3,36.3,20.9,111.8,64.6v399.7l-27.3,15.8-61.7,35.6-17.5,10.1ZM215.4,846.3c2.5,3,7.6,9.2,12.5,11.8.6-.7,1.3-1.7,2.2-3.3l-14.7-8.5ZM365.2,937.2c-1.6-2.5-3.1-4.8-4.7-7.1l-32.8-19c6.1,8.7,12.4,17.6,19.2,25.5,2.7,2.5,5.2,5.2,7.4,8l6.2,3.7c.1-.2.2-.4.2-.6,1.3-3.1,3.9-5.4,6.9-6.5-.7-1.3-1.6-2.7-2.4-4ZM579.3,927.7c-2.1,3-4.2,6.2-6.4,9.5-.8,1.3-1.7,2.7-2.5,4.1,3,1,5.6,3.3,6.9,6.5.7,1.5,1,3.1,1,4.7,3.6-5.8,7.8-11,12.9-15.8,7.4-8.7,14.3-18.5,20.9-28l-32.8,19ZM707.4,853.7c1.2,2.3,2.2,3.6,2.9,4.4,5.1-2.8,10.3-9.1,12.7-12.1.7-.8,1.3-1.7,2-2.5l-17.6,10.2Z"/></g></g><g id="Layer_3"><path class="cls-33" d="M867.75,815.89v22.57l-103.93,60.14s-156.7,20.35-199.69,39.3,0,0,0,0l303.62-122.01Z"/><path class="cls-10" d="M468.4,991.8l-217.19-47.44-91.64-52.9,34.99-17.79s257.3,83.77,273.84,118.14"/><path class="cls-29" d="M467.9,192.7s-11.9-8.01-33.23,7.11-26.45,18.67-26.45,18.67c0,0-11.77-3.56-19.77,0-8,3.56-6.22,13.33-6.22,13.33,0,0-17.88,1.78-25.83,8s-17.72,23.41-17.72,23.41c0,0-7.11.3-7.7,1.78s-2.37,3.85-2.37,3.85c0,0-1.78-.59-4.44,2.37l-2.67,2.67s-6.22-.3-6.52,1.78-1.78,3.85-1.78,3.85c0,0-17.19-10.96-26.67-4.15s-59.85,50.96-72.3,55.7-45.63,12.15-52.44,18.96-7.41,16-7.41,16c0,0-41.19,9.78-45.93,24.59s16.59,37.33,10.07,53.33-17.19,40.49-8.3,46.61c8.89,6.13,11.28-3.99,11.28-3.99v21.32s12.43-21.28,11.24-39.06,3.56-66.96,10.07-71.11c6.52-4.15,42.07-12.44,52.74-31.41,0,0,77.63-39.11,84.74-52.15s29.04-24.3,29.04-24.3c0,0,18.37-4.15,23.7-8.3,0,0,18.86-9.48,23.35-18.37,0,0,11.02,2.37,15.76-6.52,0,0,24.89-5.33,26.67-17.19,0,0,65.87-31.4,69.09-46.81"/><path class="cls-29" d="M121.5,733.05s12.2-5.56,20.68,13.25c8.49,18.81,12.32,28.24,12.32,28.24,0,0,12.2-12.26,20.68,5.66,8.49,17.91,5.53,46.14,5.53,46.14,0,0-57.11,4.77-65.26,3.83s-26.25-13.98-17.58-22.09c0,0,4.83-55.22,23.63-75.02Z"/><circle class="cls-29" cx="203.28" cy="404.06" r="2.27"/><circle class="cls-29" cx="755.81" cy="444.46" r="2.27"/><circle class="cls-29" cx="789.19" cy="483.52" r="2.27"/><circle class="cls-29" cx="640.59" cy="322.45" r="2.27"/><circle class="cls-29" cx="786.92" cy="401.79" r="2.27"/><circle class="cls-29" cx="190.18" cy="667.62" r="2.27"/><circle class="cls-29" cx="138.4" cy="551.98" r="2.27"/><circle class="cls-29" cx="356.39" cy="297.45" r="2.27"/><circle class="cls-29" cx="659.31" cy="353.79" r="4.55"/><circle class="cls-29" cx="287.37" cy="431.68" r="4.55"/><circle class="cls-29" cx="214.47" cy="660.8" r="4.55"/><circle class="cls-29" cx="320.21" cy="737.28" r="4.55"/><circle class="cls-29" cx="327.7" cy="326.99" r="4.55"/><circle class="cls-29" cx="181.38" cy="622.68" r="13.84"/><circle class="cls-29" cx="159.57" cy="713.61" r="9.33"/><circle class="cls-29" cx="258.17" cy="444.46" r="8.23"/><circle class="cls-29" cx="416.05" cy="305.68" r="8.23"/><circle class="cls-29" cx="222.7" cy="556.45" r="8.23"/></g><g id="Layer_2"><path class="cls-7" d="M440.91,302.3s-17.27-118.36,104.41-178.76c0,0-69.53,58.97-68.37,101.84,0,0,62.58-122.74,194.69-60.79,0,0-156.44-8.92-203.96,99.52,0,0,104.3-129.58,268.85-7.67,0,0-104.3-60.03-176.14-28.75,0,0,81.12-11.59,118.2,64.9,0,0-150.65-107.25-210.91,8.38l-26.76,1.32Z"/><path class="cls-21" d="M440.91,302.3s-19.59-46.84-49.72-57.24c0,0,40.56,53.61,38.24,64.48l11.48-7.24Z"/><path class="cls-25" d="M501.28,807.13s-183.1-20.86-252.63-162.24c0,0-15.06,17.38-11.59,30.13,0,0-18.42-59.1-.52-86.91,0,0-27.29,22.02-29.61,33.61,0,0,8.11-73.01,39.4-99.66,0,0-30.13,3.48-39.4,11.59,0,0,22.02-36.21,69.53-43.6,0,0,48.67-178.37,174.99-189.06,126.31-10.69,250.31,86.65,280.44,197.9,0,0,42.88-18.54,82.28,34.77,0,0-37.08-19.7-62.58-13.91,0,0,64.9,24.34,62.58,77.64,0,0-13.91-22.02-33.61-25.49,0,0,33.61,42.88,19.7,77.64,0,0-10.43-22.02-22.02-24.34,0,0-35.92,198.16-276.96,181.94Z"/><path class="cls-23" d="M576.21,680.89s9.72-74.15,0-108.85c-9.72-34.7-45.97-27.97-45.97-27.97l-74.08,108.57,47.08,28.25,47.57,12.59s22.81,1.11,25.4-12.59Z"/><path class="cls-31" d="M576.99,574.59s6.18,58.48-.77,106.3c0,0,20.75,32.76,83.1-7.41l26.61-19.7-76.12-105.55-32.81,26.36Z"/><path class="cls-9" d="M609.8,550.54s32.51,28.55,61.25,15.02c0,0,21.95-8.66,33.86-33.43s-6.35-91.79-15.09-102.75c-8.74-10.97-80.02,121.16-80.02,121.16Z"/><path class="cls-2" d="M534.68,494.77c1.34-3.15,23.88-43.1,3.17-84.16,0,0,9.41,49.31-14.12,71.9l10.95,12.26Z"/><path class="cls-12" d="M581,494.77c-1.34-3.15-23.88-43.1-3.17-84.16,0,0-9.41,49.31,14.12,71.9l-10.95,12.26Z"/><path class="cls-30" d="M584.74,488.8s-.06,43.59,18.99,52.91,64.33-2.17,72.47-43.4c8.14-41.23-13.88-62.08-13.88-62.08l-77.58,52.57Z"/><path class="cls-14" d="M577.76,576.52c-5.19-.76-11.83-2.36-18.93-5.79-16.2-7.84-24.91-20.46-28.58-26.65,5.5-3.7,21.56-13.44,44.04-12.75,19.73.61,33.74,8.94,39.4,12.75-3.4,6.38-9.95,16.49-21.63,24.72-5.11,3.6-10.06,6.04-14.29,7.73Z"/><path class="cls-19" d="M530.25,544.07s-35.22,45.71-81.43,32.45c-46.21-13.26-67.96-90.73-92.42-94.81,0,0,39.92-77.47,81.12-70.67,41.2,6.8,107.46,86.54,104.91,103.07-2.55,16.53-12.17,29.96-12.17,29.96Z"/><path class="cls-30" d="M527.78,492.34c0,2.17-4.88,56.42-59.67,55.88-54.79-.54-61.3-53.16-59.67-66.73,1.63-13.56,11.93-50.45,27.67-52.08,15.73-1.63,91.68,62.93,91.68,62.93Z"/><path class="cls-14" d="M636.37,507.9c0,11.77-9.54,21.32-21.32,21.32-11.77,0-21.32-9.54-21.32-21.32,0-11.77,9.54-21.32,21.32-21.32,11.77,0,21.32,9.54,21.32,21.32Z"/><g class="cls-36"><path class="cls-8" d="M559.62,806.76c-27.41-.61-87-5.76-147.72-44.4-83.58-53.19-112.3-133.58-119.85-157.38,0,0-21.4,9.71-24.61,18.27,0,0,1.07-66.99,25.68-84.86,0,0-14.98.42-25.68,12.14,0,0,24.6-56.76,52.43-72.81,0,0,14.49-123.93,131.57-176.75,117.08-52.82-262.11,17.42-262.11,17.42l-59.92,304.86,119.85,175.49,261.32,43.87,49.05-35.86Z"/></g><g class="cls-35"><polygon class="cls-32" points="525.65 514.11 405.19 468.05 416.05 414.42 500.36 452.69 530.25 498.97 525.65 514.11"/></g><g class="cls-34"><path class="cls-16" d="M698.33,426.97s28.15,71.15,25.44,91.04c0,0,15.69-14.88,34.3-9.48l-19.82,13.59s41.37,19.88,55.43,43.44c0,0-14.48-7.63-25.49-6.43,0,0,35.54,64.9,32.06,90.39-3.48,25.49,41.33-20.47,41.33-20.47l-22.79-175.76-120.47-26.32Z"/><path class="cls-3" d="M646.62,393.41s-40.99-46.86-77.5-57.59c0,0,12.73-2.05,24.62,4.34,0,0-43.72-36.06-126.07-39.18-82.35-3.13,152.1-12.21,152.1-12.21l58.24,94.83-31.38,9.81Z"/></g><g class="cls-37"><polygon class="cls-32" points="584.74 510.15 684.44 483.52 678 426.97 580.54 488.8 584.74 510.15"/></g><path class="cls-14" d="M514.48,507.9c0,13.46-10.91,24.38-24.38,24.38-13.46,0-24.38-10.91-24.38-24.38,0-13.46,10.91-24.38,24.38-24.38,13.46,0,24.38,10.91,24.38,24.38Z"/><path class="cls-28" d="M576.21,518.85s0-57.54,21.96-80.84c0,0-1.42,17.08,3.54,20.62,0,0,43.92-88.55,100.6-94.93,0,0-20.54,12.75-25.5,19.13,0,0,30.04-12.04,46.19-10.63,0,0-21.4,15.59-22.1,21.96,0,0,21.66-4.25,35.62,11.33,0,0-20.04,7.08-23.58,14.88,0,0,4.54,2.13,10.06-1.42,0,0-25.65,33.3-75.94,60.22-50.3,26.92-58.8,25.5-70.84,39.67Z"/><path class="cls-4" d="M542.42,534.01s-22.98-92.79-57.04-120.88c0,0,10.22,18.73,5.96,26.39,0,0-68.1-79.69-148.12-57.3,0,0,21.28,7.92,27.24,16.44,0,0-22.13-2.55-27.24,0,0,0,18.73,3.41,20.43,7.66,0,0-46.82,6.81-58.74,22.98,0,0,52.78-12.77,91.09,8.51,38.31,21.28,134.57,76.84,146.42,96.19Z"/><path class="cls-18" d="M349.9,514.11s-8.65,79.84,106.26,138.53c108.04,55.19,120.05,28.25,120.05,28.25,0,0,11.16,12.64,37.47,7.31,32.81-6.64,97.86-32.87,122.84-137.11,0,0-9.94,116.74-114.34,142.73-6.36,1.58-12.92,2.21-19.47,2.02-9.16-.27-21.49-1.66-26.5-6.87,0,0-6.63,6.6-20.58,6.6-23.18,0-216.3-52.65-205.73-181.45Z"/><path class="cls-6" d="M321.71,554.12s-15.51-32.34,43.76-43.97c0,0-36.56,15.38-43.76,43.97Z"/><path class="cls-17" d="M708.23,556.35s42.1-45.96,49.85,9.21c0,0-11.63-39.82-49.85-9.21Z"/><path class="cls-13" d="M652.73,697.71s-62.07,45.89-165.62-7.89c0,0,17.29,46.94,44.39,71.39,0,0,.17-28.36,7.28-29.34,0,0,13.9,35.48,4.14,56.72,0,0,33.42-25.87,41.73-49.38,0,0,8.22,13.2,10.16,21.02,0,0,21.14-24.45,21.32-34.23,0,0,8,3.91,8,13.2,0,0,25.66-19.1,28.61-41.49Z"/><path class="cls-26" d="M515.13,378.25s17.52,28.96,43.95,24.47c26.43-4.49,34.65-23.04,34.65-23.04,0,0-30.98,65.94-78.61-1.43Z"/><path class="cls-15" d="M277.62,803.07s-60.05-53.18-123.12,21.04c0,0,52.71-36.82,123.12-21.04Z"/><path class="cls-27" d="M917.04,760.16c-6.16-4.37-10.74-7.67-25.07-11.08-15.5-3.7-28.38-2.28-35.78-.88,2.56-2.96,8.07-8.46,16.9-11.39,13.31-4.42,24.91.07,28.23,1.5-7.92-5.07-32.95-19.69-64.35-14.8-13.89,2.16-24.62,7.46-31.71,11.87-5.61,2.4-11.22,4.79-16.82,7.19,2.42-4.27,5.77-9.17,10.42-13.96,11.88-12.23,25.51-16.84,33.08-18.71-10.66.59-29.12,3.08-48.86,13.94-24.23,13.33-37.5,32.18-43.33,41.79-20.78,15.12-42.01,31.24-63.58,48.4-27.69,22.04-53.6,43.96-77.8,65.48-61.91.06-85.28,17.23-85.28,17.23,0,0-17.41,9.58-25.13,35.27l17.3-2.69,41.56-1.22,5.6,14.67c131.79-54.98,221.94-84.63,267.92-96.89,13.42-3.58,54.25-13.54,60.26-40.25,1.43-6.34.53-12-.24-15.29,3.8,1.29,10.31,4.09,16.52,10.15,9.02,8.79,11.88,19.06,12.8,23.18,2.44-11.5,2.29-24.89-4.19-36.31-4.35-7.66-11.71-15.07-23.9-20.49,4.34,1.93,9.97-3.82,16.94-4.8,10.22-1.44,12.85-3.22,18.5-1.89Z"/><path class="cls-24" d="M564.13,937.9c-15.07-26.88-42.97-15.76-58.87-8.59-33.45-14.65-87.75-38.58-119.86-61.06-29.58-20.71-56.63-41.18-81.22-60.93-8.61-10.29-27.77-30.53-59.76-45.18-26.06-11.93-49.32-14.98-62.64-15.85,9.66,2.15,27.24,7.34,43.73,20.54,6.46,5.17,11.32,10.43,14.93,15-7.3-2.66-14.61-5.33-21.91-7.99-9.43-4.83-23.5-10.67-41.05-13.27-39.68-5.88-68.68,9.01-77.78,14.2,3.92-1.43,17.68-5.92,34.84-.95,11.37,3.3,19,9.24,22.6,12.43-9.39-1.65-25.58-3.43-44.3.13-17.31,3.29-29.52,9.77-36.55,14.25,6.83-1.28,17.35-2.43,30.24-.68,8.79,1.2,16.17,3.4,21.71,5.46-13.39,12.56-18.67,38.75-18.67,38.75-1.63,6.15-2.97,15.87,2.56,25.12,13.74,22.97,56.84,21.28,118.34,34.93,17.1,3.8,47.77,14.51,109.1,35.95,36.23,12.66,76.98,30.85,128.82,51.63l65.3-37.71s30.64-15.8,30.43-16.19Z"/></g></svg>